#!OML:ASF H:\LiuWeirdWalks\Patient Classification 1\Patient 1\Session 1\male.ASF
:FULLY-SPECIFIED
:DEGREES
604
root 2.02391 17.9356 31.5287 0.235694 1.2337 -6.12532
lowerback -0.113157 6.92875 13.2292
upperback -0.821539 9.2971 -3.29251
thorax 1.84328 4.76961 -10.5232
lowerneck -6.49153 -2.65271 3.55513
upperneck 12.1327 -4.28437 2.51744
head 4.69423 -1.78148 -0.0562073
rclavicle 1.00604e-013 -3.97569e-015
rhumerus -12.2849 -12.7251 -78.0551
rradius 48.8636
rwrist -20.7043
rhand -18.0178 3.64886
rfingers 7.12502
rthumb 8.25319 -26.1699
lclavicle 1.00604e-013 -3.97569e-015
lhumerus -51.5047 17.7198 38.7234
lradius 34.2047
lwrist 5.2863
lhand -15.2723 5.95965
lfingers 7.12502
lthumb 10.9021 35.6566
rfemur 1.0476 -18.7389 22.3692
rtibia 52.5405
rfoot -2.14167 -29.4763
rtoes 6.50214
lfemur -18.9244 -1.2078 -15.5015
ltibia 34.403
lfoot -6.52709 14.2368
ltoes -7.73147
605
root 2.03276 17.9424 31.6332 0.151126 1.25271 -6.03394
lowerback -0.0214588 6.86946 13.1831
upperback -0.753917 9.22576 -3.21933
thorax 1.82451 4.73461 -10.4331
lowerneck -6.67429 -2.85851 3.19639
upperneck 12.2775 -4.56879 2.76375
head 4.78184 -1.91645 0.0561607
rclavicle -4.96403e-014 -1.66979e-014
rhumerus -13.2138 -12.8825 -78.1197
rradius 48.3523
rwrist -20.3702
rhand -18.0773 3.55668
rfingers 7.12502
rthumb 8.19574 -26.2644
lclavicle -4.96403e-014 -1.66979e-014
lhumerus -50.2397 18.3573 40.7517
lradius 33.554
lwrist 3.39907
lhand -15.0284 4.93326
lfingers 7.12502
lthumb 11.1373 34.6177
rfemur -0.00729398 -19.0296 22.2079
rtibia 53.1142
rfoot -3.37436 -28.6148
rtoes 5.38918
lfemur -18.3081 -1.23332 -15.6564
ltibia 34.1746
lfoot -6.73172 14.3981
ltoes -7.83421
606
root 2.04075 17.9466 31.7377 0.0378692 1.25529 -5.98769
lowerback 0.0928446 6.86155 13.1222
upperback -0.547086 9.21787 -3.04476
thorax 1.94018 4.74629 -10.2092
lowerneck -7.32424 -3.12395 2.58987
upperneck 12.5089 -4.93055 3.02583
head 4.983 -2.09207 0.198667
rclavicle -1.62755e-015 4.29375e-014
rhumerus -13.9245 -13.1261 -77.9585
rradius 47.7881
rwrist -20.0641
rhand -18.1879 3.45442
rfingers 7.12502
rthumb 8.089 -26.3708
lclavicle -1.62755e-015 4.29375e-014
lhumerus -48.1875 19.7085 42.7706
lradius 31.5359
lwrist 0.881401
lhand -15.1385 3.06095
lfingers 7.12502
lthumb 11.0312 32.7511
rfemur -1.0304 -19.2563 22.1214
rtibia 53.597
rfoot -4.58551 -27.8351
rtoes 4.23563
lfemur -17.6909 -1.26478 -15.7531
ltibia 34.0025
lfoot -6.96847 14.5784
ltoes -7.88322
607
root 2.04737 17.9494 31.8427 -0.0838567 1.23846 -5.96078
lowerback 0.134924 6.83295 12.7862
upperback -0.149356 9.15854 -2.65795
thorax 2.20686 4.74445 -9.58565
lowerneck -8.58737 -3.3829 1.76683
upperneck 12.9105 -5.26124 3.17994
head 5.34679 -2.25795 0.329419
rclavicle 4.64411e-014 2.62396e-014
rhumerus -14.2533 -13.1807 -77.5898
rradius 47.1452
rwrist -19.8152
rhand -18.3422 3.31423
rfingers 7.12502
rthumb 7.94002 -26.5166
lclavicle 4.64411e-014 2.62396e-014
lhumerus -45.7229 22.3431 44.5608
lradius 28.4738
lwrist -2.62832
lhand -15.4933 0.673318
lfingers 7.12502
lthumb 10.6889 30.3814
rfemur -2.04404 -19.422 22.0852
rtibia 53.9846
rfoot -5.71757 -27.1559
rtoes 3.05508
lfemur -17.0889 -1.30628 -15.8192
ltibia 33.8793
lfoot -7.2395 14.7795
ltoes -7.86679
608
root 2.05225 17.951 31.9474 -0.208617 1.21144 -5.92196
lowerback 0.0840692 6.75142 12.1293
upperback 0.419466 9.0045 -2.07643
thorax 2.60108 4.69979 -8.56737
lowerneck -10.3525 -3.60705 0.858144
upperneck 13.4266 -5.49977 3.17207
head 5.83377 -2.38673 0.416387
rclavicle -8.64713e-015 -5.56597e-015
rhumerus -14.2228 -12.9957 -77.0971
rradius 46.4319
rwrist -19.6072
rhand -18.5009 3.1379
rfingers 7.12502
rthumb 7.78688 -26.6987
lclavicle -8.64713e-015 -5.56597e-015
lhumerus -43.1702 26.38 45.9922
lradius 24.8167
lwrist -7.20833
lhand -15.9936 -1.86754
lfingers 7.12502
lthumb 10.2063 27.8649
rfemur -3.06253 -19.5336 22.0655
rtibia 54.2928
rfoot -6.7306 -26.5856
rtoes 2.02118
lfemur -16.4978 -1.35958 -15.8923
ltibia 33.7806
lfoot -7.53378 14.9987
ltoes -7.78227
609
root 2.05508 17.9514 32.05 -0.334475 1.1692 -5.87763
lowerback -0.0338965 6.57449 11.2065
upperback 1.06845 8.71163 -1.36588
thorax 3.02846 4.57657 -7.27818
lowerneck -12.3159 -3.74356 0.0721056
upperneck 13.9675 -5.57373 2.9782
head 6.35672 -2.44418 0.432201
rclavicle 8.7838e-014 8.74653e-015
rhumerus -13.9616 -12.5114 -76.6438
rradius 45.651
rwrist -19.3704
rhand -18.6511 2.92168
rfingers 7.12502
rthumb 7.6419 -26.9203
lclavicle 8.7838e-014 8.74653e-015
lhumerus -40.9708 31.1618 47.1876
lradius 21.3586
lwrist -12.1678
lhand -16.5389 -4.09451
lfingers 7.12502
lthumb 9.68027 25.663
rfemur -4.10553 -19.5687 22.086
rtibia 54.5344
rfoot -7.66119 -26.1578
rtoes 1.12537
lfemur -15.9212 -1.41285 -15.9604
ltibia 33.69
lfoot -7.82943 15.224
ltoes -7.65918
610
root 2.05681 17.9504 32.1489 -0.433363 1.18219 -5.72771
lowerback -0.207753 6.28122 10.0912
upperback 1.69311 8.26602 -0.684038
thorax 3.42112 4.36144 -5.93646
lowerneck -14.1662 -3.76819 -0.451122
upperneck 14.4633 -5.48526 2.67346
head 6.83658 -2.42587 0.387556
rclavicle -6.14245e-014 -3.06128e-014
rhumerus -13.6705 -11.8371 -76.3773
rradius 44.8309
rwrist -19.0473
rhand -18.7584 2.70876
rfingers 7.12502
rthumb 7.53833 -27.1369
lclavicle -6.14245e-014 -3.06128e-014
lhumerus -39.0887 35.3525 48.6871
lradius 18.7174
lwrist -16.1782
lhand -17.0231 -5.63852
lfingers 7.12502
lthumb 9.2131 24.1402
rfemur -5.20121 -19.6088 22.0131
rtibia 54.7296
rfoot -8.51251 -25.8374
rtoes 0.393969
lfemur -15.3876 -1.49961 -16.1502
ltibia 33.5901
lfoot -8.1052 15.4329
ltoes -7.55707
